<svg xmlns="http://www.w3.org/2000/svg" xmlns:xlink="http://www.w3.org/1999/xlink" width="500" zoomAndPan="magnify" viewBox="0 0 375 374.999991" height="500" preserveAspectRatio="xMidYMid meet" version="1.2"><defs><clipPath id="7fdc5630db"><path d="M 129.914062 129.914062 L 245.03125 129.914062 L 245.03125 245.03125 L 129.914062 245.03125 Z M 129.914062 129.914062 "/></clipPath><clipPath id="7cfbcafc03"><path d="M 187.472656 129.914062 C 155.683594 129.914062 129.914062 155.683594 129.914062 187.472656 C 129.914062 219.261719 155.683594 245.03125 187.472656 245.03125 C 219.261719 245.03125 245.03125 219.261719 245.03125 187.472656 C 245.03125 155.683594 219.261719 129.914062 187.472656 129.914062 Z M 187.472656 129.914062 "/></clipPath><clipPath id="a2b1542f37"><path d="M 191.699219 147.980469 L 217.378906 147.980469 L 217.378906 173.65625 L 191.699219 173.65625 Z M 191.699219 147.980469 "/></clipPath><clipPath id="bde8431ad5"><path d="M 204.539062 147.980469 C 197.449219 147.980469 191.699219 153.726562 191.699219 160.820312 C 191.699219 167.910156 197.449219 173.65625 204.539062 173.65625 C 211.628906 173.65625 217.378906 167.910156 217.378906 160.820312 C 217.378906 153.726562 211.628906 147.980469 204.539062 147.980469 Z M 204.539062 147.980469 "/></clipPath><clipPath id="76c61e79cb"><path d="M 180.578125 173.65625 L 194.421875 173.65625 L 194.421875 187.5 L 180.578125 187.5 Z M 180.578125 173.65625 "/></clipPath><clipPath id="f67ca0e7c3"><path d="M 187.5 173.65625 C 183.675781 173.65625 180.578125 176.757812 180.578125 180.578125 C 180.578125 184.402344 183.675781 187.5 187.5 187.5 C 191.324219 187.5 194.421875 184.402344 194.421875 180.578125 C 194.421875 176.757812 191.324219 173.65625 187.5 173.65625 Z M 187.5 173.65625 "/></clipPath><clipPath id="6a2b3386db"><path d="M 251 160 L 308.53125 160 L 308.53125 291 L 251 291 Z M 251 160 "/></clipPath><clipPath id="d22f55ee9f"><path d="M 130 229 L 243 229 L 243 308.53125 L 130 308.53125 Z M 130 229 "/></clipPath><clipPath id="8cc9dde356"><path d="M 66.578125 191 L 180 191 L 180 290 L 66.578125 290 Z M 66.578125 191 "/></clipPath><clipPath id="b29fab762a"><path d="M 66.578125 84 L 124 84 L 124 215 L 66.578125 215 Z M 66.578125 84 "/></clipPath><clipPath id="4e748c78f2"><path d="M 132 66.578125 L 245 66.578125 L 245 146 L 132 146 Z M 132 66.578125 "/></clipPath><clipPath id="4fd187ae8d"><path d="M 195 85 L 308.53125 85 L 308.53125 184 L 195 184 Z M 195 85 "/></clipPath></defs><g id="52cd05660c"><g clip-rule="nonzero" clip-path="url(#7fdc5630db)"><g clip-rule="nonzero" clip-path="url(#7cfbcafc03)"><path style="fill:none;stroke-width:10.880306;stroke-linecap:butt;stroke-linejoin:miter;stroke:#000000;stroke-opacity:1;stroke-miterlimit:4;" d="M 83.538478 -0.00126469 C 37.400271 -0.00126469 -0.00127122 37.400277 -0.00127122 83.538484 C -0.00127122 129.676691 37.400271 167.078233 83.538478 167.078233 C 129.676684 167.078233 167.078226 129.676691 167.078226 83.538484 C 167.078226 37.400277 129.676684 -0.00126469 83.538478 -0.00126469 Z M 83.538478 -0.00126469 " transform="matrix(0.688996,0,0,0.688996,129.914938,129.914934)"/></g></g><g clip-rule="nonzero" clip-path="url(#a2b1542f37)"><g clip-rule="nonzero" clip-path="url(#bde8431ad5)"><path style=" stroke:none;fill-rule:nonzero;fill:#000000;fill-opacity:1;" d="M 191.699219 147.980469 L 217.378906 147.980469 L 217.378906 173.65625 L 191.699219 173.65625 Z M 191.699219 147.980469 "/></g></g><g clip-rule="nonzero" clip-path="url(#76c61e79cb)"><g clip-rule="nonzero" clip-path="url(#f67ca0e7c3)"><path style=" stroke:none;fill-rule:nonzero;fill:#000000;fill-opacity:1;" d="M 180.578125 173.65625 L 194.421875 173.65625 L 194.421875 187.5 L 180.578125 187.5 Z M 180.578125 173.65625 "/></g></g><g clip-rule="nonzero" clip-path="url(#6a2b3386db)"><path style=" stroke:none;fill-rule:nonzero;fill:#000000;fill-opacity:1;" d="M 251.242188 160.449219 L 251.242188 290.253906 C 283.992188 269.898438 306.304688 234.285156 308.25 193.363281 L 251.242188 160.449219 "/></g><g clip-rule="nonzero" clip-path="url(#d22f55ee9f)"><path style=" stroke:none;fill-rule:nonzero;fill:#000000;fill-opacity:1;" d="M 242.796875 229.164062 L 187.503906 261.082031 L 187.484375 261.082031 L 130.351562 294.070312 C 147.386719 303.214844 166.835938 308.410156 187.503906 308.410156 C 207.4375 308.410156 226.226562 303.566406 242.796875 295.027344 L 242.796875 229.164062 "/></g><g clip-rule="nonzero" clip-path="url(#8cc9dde356)"><path style=" stroke:none;fill-rule:nonzero;fill:#000000;fill-opacity:1;" d="M 179.03125 256.199219 L 123.769531 224.300781 L 66.636719 191.332031 C 67.910156 232.367188 89.675781 268.261719 122.019531 289.128906 L 179.03125 256.199219 "/></g><g clip-rule="nonzero" clip-path="url(#b29fab762a)"><path style=" stroke:none;fill-rule:nonzero;fill:#000000;fill-opacity:1;" d="M 123.769531 214.539062 L 123.769531 84.734375 C 90.980469 105.082031 68.695312 140.695312 66.730469 181.628906 L 123.769531 214.539062 "/></g><g clip-rule="nonzero" clip-path="url(#4e748c78f2)"><path style=" stroke:none;fill-rule:nonzero;fill:#000000;fill-opacity:1;" d="M 187.503906 66.578125 C 167.570312 66.578125 148.800781 71.40625 132.222656 79.957031 L 132.222656 145.808594 L 187.503906 113.886719 L 244.636719 80.917969 C 227.625 71.773438 208.171875 66.578125 187.503906 66.578125 "/></g><g clip-rule="nonzero" clip-path="url(#4fd187ae8d)"><path style=" stroke:none;fill-rule:nonzero;fill:#000000;fill-opacity:1;" d="M 252.980469 85.859375 L 195.960938 118.769531 L 251.242188 150.691406 L 308.355469 183.660156 C 307.078125 142.625 285.332031 106.71875 252.980469 85.859375 "/></g></g></svg>